<?xml version="1.0" encoding="iso-8859-1"?>
<!-- Generator: Adobe Illustrator 19.0.0, SVG Export Plug-In . SVG Version: 6.00 Build 0)  -->
<svg version="1.1" id="Layer_1" xmlns="http://www.w3.org/2000/svg" xmlns:xlink="http://www.w3.org/1999/xlink" x="0px" y="0px"
	 viewBox="0 0 512.002 512.002" style="enable-background:new 0 0 512.002 512.002;" xml:space="preserve">
<g>
	<rect x="27.571" y="228.432" style="fill:#CBBBA0;" width="141.78" height="267.812"/>
	<rect x="344.72" y="228.432" style="fill:#CBBBA0;" width="141.78" height="267.812"/>
	<rect x="161.481" y="110.274" style="fill:#CBBBA0;" width="189.043" height="393.844"/>
</g>
<g>
	<rect x="271.755" y="149.664" style="fill:#FFFFFF;" width="47.263" height="189.043"/>
	<rect x="192.986" y="149.664" style="fill:#FFFFFF;" width="47.263" height="189.043"/>
</g>
<g>
	<rect x="192.986" y="244.19" style="fill:#FAC15C;" width="47.263" height="47.263"/>
	<rect x="271.755" y="196.927" style="fill:#FAC15C;" width="47.263" height="47.263"/>
	<rect x="192.986" y="149.664" style="fill:#FAC15C;" width="47.263" height="47.263"/>
	<rect x="271.755" y="291.443" style="fill:#FAC15C;" width="47.263" height="47.263"/>
	<rect x="161.481" y="425.36" style="fill:#FAC15C;" width="189.911" height="78.769"/>
</g>
<rect x="208.744" y="378.096" style="fill:#CBBBA0;" width="95.468" height="126.032"/>
<rect x="208.744" y="378.096" style="fill:#FFFFFF;" width="93.617" height="126.032"/>
<g>
	<rect x="3.94" y="202.835" style="fill:#BE1622;" width="157.537" height="25.596"/>
	<rect x="350.523" y="202.835" style="fill:#BE1622;" width="157.537" height="25.596"/>
	<rect x="137.849" y="84.681" style="fill:#BE1622;" width="236.306" height="25.596"/>
</g>
<g>
	<rect x="27.571" y="70.893" style="fill:#F9B233;" width="63.011" height="63.011"/>
	<rect x="421.419" y="70.893" style="fill:#F9B233;" width="63.011" height="63.011"/>
</g>
<g>
	<rect x="19.693" y="244.18" style="fill:#1D1D1B;" width="15.758" height="244.18"/>
	<rect x="3.94" y="496.244" style="fill:#1D1D1B;" width="504.118" height="15.758"/>
	<rect x="137.849" y="102.4" style="fill:#1D1D1B;" width="236.306" height="15.758"/>
	<rect x="137.849" y="78.769" style="fill:#1D1D1B;" width="236.306" height="15.758"/>
	<path style="fill:#1D1D1B;" d="M153.601,126.031v70.892H35.447v-55.138h75.76L91.515,102.4l19.693-39.384H19.693v133.908H3.94
		v15.754h149.661v7.877H3.94v15.754h149.661v252.061h15.754V126.031L153.601,126.031L153.601,126.031z M35.447,78.77h50.271
		L73.902,102.4l11.816,23.631H35.447V78.77z"/>
	<rect x="59.08" y="252.064" style="fill:#1D1D1B;" width="15.758" height="39.385"/>
	<rect x="114.217" y="252.064" style="fill:#1D1D1B;" width="15.758" height="39.385"/>
	<rect x="59.08" y="315.075" style="fill:#1D1D1B;" width="15.758" height="39.385"/>
	<rect x="114.217" y="315.075" style="fill:#1D1D1B;" width="15.758" height="39.385"/>
	<rect x="59.08" y="378.096" style="fill:#1D1D1B;" width="15.758" height="39.384"/>
	<rect x="114.217" y="378.096" style="fill:#1D1D1B;" width="15.758" height="39.384"/>
	<rect x="59.08" y="441.107" style="fill:#1D1D1B;" width="15.758" height="39.385"/>
	<rect x="114.217" y="441.107" style="fill:#1D1D1B;" width="15.758" height="39.385"/>
	<rect x="476.556" y="244.18" style="fill:#1D1D1B;" width="15.758" height="244.18"/>
	<path style="fill:#1D1D1B;" d="M508.062,212.678v-15.754h-15.753V63.016h-91.515l19.693,39.384l-19.693,39.384h75.76v55.138
		H358.401v-70.892h-15.754v362.338h15.754V236.308h149.661v-15.754H358.401v-7.877H508.062z M426.284,126.031L438.1,102.4
		L426.284,78.77h50.271v47.261C476.555,126.031,426.284,126.031,426.284,126.031z"/>
	<rect x="437.166" y="252.064" style="fill:#1D1D1B;" width="15.758" height="39.385"/>
	<rect x="382.029" y="252.064" style="fill:#1D1D1B;" width="15.758" height="39.385"/>
	<rect x="437.166" y="315.075" style="fill:#1D1D1B;" width="15.758" height="39.385"/>
	<rect x="382.029" y="315.075" style="fill:#1D1D1B;" width="15.758" height="39.385"/>
	<rect x="437.166" y="378.096" style="fill:#1D1D1B;" width="15.758" height="39.384"/>
	<rect x="382.029" y="378.096" style="fill:#1D1D1B;" width="15.758" height="39.384"/>
	<rect x="437.166" y="441.107" style="fill:#1D1D1B;" width="15.758" height="39.385"/>
	<rect x="382.029" y="441.107" style="fill:#1D1D1B;" width="15.758" height="39.385"/>
	<polygon style="fill:#1D1D1B;" points="200.863,370.215 200.863,488.369 216.618,488.369 216.618,385.97 248.124,385.97 
		248.124,488.369 263.879,488.369 263.879,385.97 295.386,385.97 295.386,488.369 311.14,488.369 311.14,370.215 	"/>
	<rect x="271.755" y="448.981" style="fill:#1D1D1B;" width="15.758" height="15.758"/>
	<rect x="224.491" y="448.981" style="fill:#1D1D1B;" width="15.758" height="15.758"/>
	<path style="fill:#1D1D1B;" d="M185.109,346.586h63.016V141.785h-63.016V346.586z M200.863,330.831v-31.507h31.508v31.507H200.863z
		 M232.37,252.062v31.508h-31.508v-31.508H232.37z M200.863,236.307V204.8h31.508v31.507H200.863z M232.37,157.539v31.508h-31.508
		v-31.508H232.37z"/>
	<path style="fill:#1D1D1B;" d="M263.878,141.785v204.801h63.016V141.785L263.878,141.785L263.878,141.785z M311.139,157.539v31.508
		h-31.507v-31.508H311.139z M279.632,236.307V204.8h31.507v31.507H279.632z M311.139,252.062v31.508h-31.507v-31.508H311.139z
		 M279.632,330.831v-31.507h31.507v31.507H279.632z"/>
	<polygon style="fill:#1D1D1B;" points="263.879,55.138 263.879,0 248.124,0 248.124,55.138 208.74,55.138 208.74,70.893 
		303.263,70.893 303.263,55.138 	"/>
</g>
<g>
</g>
<g>
</g>
<g>
</g>
<g>
</g>
<g>
</g>
<g>
</g>
<g>
</g>
<g>
</g>
<g>
</g>
<g>
</g>
<g>
</g>
<g>
</g>
<g>
</g>
<g>
</g>
<g>
</g>
</svg>
